<svg xmlns="http://www.w3.org/2000/svg"  viewBox="0 0 100 100" width="100px" height="100px"><path fill="#f1bc19" d="M77 12A1 1 0 1 0 77 14A1 1 0 1 0 77 12Z"/><path fill="#e6edb7" d="M50 13A37 37 0 1 0 50 87A37 37 0 1 0 50 13Z"/><path fill="#f1bc19" d="M83 11A4 4 0 1 0 83 19A4 4 0 1 0 83 11Z"/><path fill="#88ae45" d="M87 22A2 2 0 1 0 87 26A2 2 0 1 0 87 22Z"/><path fill="#fbcd59" d="M81 74A2 2 0 1 0 81 78 2 2 0 1 0 81 74zM15 59A4 4 0 1 0 15 67 4 4 0 1 0 15 59z"/><path fill="#88ae45" d="M25 85A2 2 0 1 0 25 89A2 2 0 1 0 25 85Z"/><path fill="#fff" d="M18.5 49A2.5 2.5 0 1 0 18.5 54 2.5 2.5 0 1 0 18.5 49zM79.5 32A1.5 1.5 0 1 0 79.5 35 1.5 1.5 0 1 0 79.5 32z"/><g><path fill="#ee3e54" d="M13 27A2 2 0 1 0 13 31A2 2 0 1 0 13 27Z"/><path fill="#f1bc19" d="M77 12A1 1 0 1 0 77 14A1 1 0 1 0 77 12Z"/><path fill="#fce0a2" d="M50 13A37 37 0 1 0 50 87A37 37 0 1 0 50 13Z"/><path fill="#f1bc19" d="M83 11A4 4 0 1 0 83 19A4 4 0 1 0 83 11Z"/><path fill="#ee3e54" d="M87 22A2 2 0 1 0 87 26A2 2 0 1 0 87 22Z"/><path fill="#fbcd59" d="M81 74A2 2 0 1 0 81 78 2 2 0 1 0 81 74zM15 59A4 4 0 1 0 15 67 4 4 0 1 0 15 59z"/><path fill="#ee3e54" d="M25 85A2 2 0 1 0 25 89A2 2 0 1 0 25 85Z"/><path fill="#fff" d="M18.5 51A2.5 2.5 0 1 0 18.5 56A2.5 2.5 0 1 0 18.5 51Z"/><path fill="#f1bc19" d="M21 66A1 1 0 1 0 21 68A1 1 0 1 0 21 66Z"/><path fill="#fff" d="M80 33A1 1 0 1 0 80 35A1 1 0 1 0 80 33Z"/></g><g><path fill="#afabd4" d="M34.826,72.3c-3.929,0-7.126-3.196-7.126-7.126V35.826c0-3.93,3.197-7.126,7.126-7.126h29.348 c3.929,0,7.126,3.196,7.126,7.126v29.348c0,3.93-3.197,7.126-7.126,7.126H34.826z"/><path fill="#472b29" d="M64.174,29.4c3.543,0,6.426,2.883,6.426,6.426v29.348c0,3.543-2.883,6.426-6.426,6.426H34.826 c-3.543,0-6.426-2.883-6.426-6.426V35.826c0-3.543,2.883-6.426,6.426-6.426H64.174 M64.174,28H34.826 C30.522,28,27,31.522,27,35.826v29.348C27,69.478,30.522,73,34.826,73h29.348C68.478,73,72,69.478,72,65.174V35.826 C72,31.522,68.478,28,64.174,28L64.174,28z"/></g><g><path fill="#472b29" d="M67.5,50.375c-0.276,0-0.5-0.224-0.5-0.5V46c0-0.276,0.224-0.5,0.5-0.5S68,45.724,68,46v3.875 C68,50.151,67.776,50.375,67.5,50.375z"/></g><g><path fill="#472b29" d="M63.148,69H35.81c-2.698,0-4.894-2.187-4.894-4.873V36.915c0-2.687,2.195-4.873,4.894-4.873h18.775 c0.276,0,0.5,0.224,0.5,0.5s-0.224,0.5-0.5,0.5H35.81c-2.147,0-3.894,1.737-3.894,3.873v27.212c0,2.136,1.747,3.873,3.894,3.873 h27.338c2.147,0,3.894-1.737,3.894-3.873V53.156c0-0.276,0.224-0.5,0.5-0.5s0.5,0.224,0.5,0.5v10.971 C68.042,66.813,65.846,69,63.148,69z"/></g><g><path fill="#fefdef" d="M49.882,52.42c-0.614,0-1.192-0.238-1.626-0.673c-0.434-0.435-0.673-1.012-0.673-1.627 c0-0.614,0.239-1.191,0.674-1.626l17.118-17.118H58.42c-1.268,0-2.3-1.031-2.3-2.3s1.032-2.3,2.3-2.3l14.798-0.003l0,14.801 c0,1.269-1.032,2.3-2.3,2.3s-2.3-1.031-2.3-2.3v-6.938l-17.11,17.11C51.074,52.182,50.497,52.42,49.882,52.42z"/><path fill="#472b29" d="M72.484,27.474l0,0.002h0.036l0,3.2h-0.002v1.4v9.498c0,0.882-0.718,1.6-1.6,1.6 c-0.882,0-1.6-0.718-1.6-1.6v-5.247v-3.38l-2.39,2.39L51.013,51.252c-0.302,0.302-0.704,0.469-1.131,0.469 s-0.829-0.167-1.131-0.469c-0.624-0.624-0.624-1.639,0-2.263l15.923-15.923l2.39-2.39h-3.38H58.42 c-0.427,0-0.829-0.167-1.131-0.469s-0.469-0.704-0.469-1.131c0-0.882,0.718-1.6,1.6-1.6h9.498l1.4-0.002H72.484 M73.918,26.074h-6 v0.002H58.42c-1.657,0-3,1.343-3,3c0,1.657,1.343,3,3,3h5.264L47.761,47.999c-1.172,1.172-1.172,3.071,0,4.243 c0.586,0.586,1.354,0.879,2.121,0.879s1.536-0.293,2.121-0.879l15.915-15.915v5.247c0,1.657,1.343,3,3,3h0c1.657,0,3-1.343,3-3 v-9.498h0.002l0-6h-0.002L73.918,26.074L73.918,26.074z"/></g></svg>